<svg xmlns="http://www.w3.org/2000/svg" xmlns:xlink="http://www.w3.org/1999/xlink" version="1.1" width="256" height="256" viewBox="0 0 256 256" xml:space="preserve">

<defs>
</defs>
<g style="stroke: none; stroke-width: 0; stroke-dasharray: none; stroke-linecap: butt; stroke-linejoin: miter; stroke-miterlimit: 10; fill: none; fill-rule: nonzero; opacity: 1;" transform="translate(1.4065934065934016 1.4065934065934016) scale(2.81 2.81)" >
	<path d="M 78.584 57.803 c -3.664 0 -6.645 -2.98 -6.645 -6.645 s 2.98 -6.645 6.645 -6.645 s 6.645 2.98 6.645 6.645 S 82.248 57.803 78.584 57.803 z M 78.584 47.514 c -2.01 0 -3.645 1.635 -3.645 3.645 s 1.635 3.645 3.645 3.645 s 3.645 -1.635 3.645 -3.645 S 80.594 47.514 78.584 47.514 z" style="stroke: none; stroke-width: 1; stroke-dasharray: none; stroke-linecap: butt; stroke-linejoin: miter; stroke-miterlimit: 10; fill: rgb(0,0,0); fill-rule: nonzero; opacity: 1;" transform=" matrix(1 0 0 1 0 0) " stroke-linecap="round" />
	<path d="M 12.061 57.803 c -3.664 0 -6.645 -2.98 -6.645 -6.645 s 2.981 -6.645 6.645 -6.645 s 6.645 2.98 6.645 6.645 S 15.724 57.803 12.061 57.803 z M 12.061 47.514 c -2.01 0 -3.645 1.635 -3.645 3.645 s 1.635 3.645 3.645 3.645 s 3.645 -1.635 3.645 -3.645 S 14.07 47.514 12.061 47.514 z" style="stroke: none; stroke-width: 1; stroke-dasharray: none; stroke-linecap: butt; stroke-linejoin: miter; stroke-miterlimit: 10; fill: rgb(0,0,0); fill-rule: nonzero; opacity: 1;" transform=" matrix(1 0 0 1 0 0) " stroke-linecap="round" />
	<path d="M 78.58 53.16 c -0.261 0 -0.521 -0.051 -0.761 -0.15 c -0.239 -0.1 -0.46 -0.25 -0.649 -0.44 c -0.38 -0.369 -0.58 -0.88 -0.58 -1.409 c 0 -0.13 0.01 -0.261 0.03 -0.391 c 0.029 -0.13 0.069 -0.26 0.12 -0.38 c 0.05 -0.12 0.109 -0.229 0.18 -0.34 s 0.16 -0.22 0.25 -0.31 c 0.09 -0.091 0.189 -0.171 0.3 -0.25 c 0.11 -0.07 0.23 -0.131 0.35 -0.181 c 0.12 -0.05 0.25 -0.09 0.37 -0.109 c 0.65 -0.141 1.341 0.08 1.811 0.54 c 0.09 0.09 0.17 0.199 0.25 0.31 c 0.069 0.11 0.13 0.22 0.18 0.34 s 0.09 0.25 0.11 0.38 c 0.029 0.13 0.04 0.261 0.04 0.391 c 0 0.529 -0.2 1.029 -0.58 1.409 c -0.101 0.101 -0.2 0.181 -0.311 0.25 c -0.109 0.08 -0.22 0.141 -0.34 0.19 s -0.25 0.08 -0.37 0.11 C 78.85 53.149 78.72 53.16 78.58 53.16 z" style="stroke: none; stroke-width: 1; stroke-dasharray: none; stroke-linecap: butt; stroke-linejoin: miter; stroke-miterlimit: 10; fill: rgb(0,0,0); fill-rule: nonzero; opacity: 1;" transform=" matrix(1 0 0 1 0 0) " stroke-linecap="round" />
	<path d="M 12.06 53.16 c -0.26 0 -0.52 -0.051 -0.76 -0.15 c -0.25 -0.1 -0.47 -0.25 -0.65 -0.44 c -0.38 -0.38 -0.59 -0.88 -0.59 -1.409 c 0 -0.13 0.01 -0.261 0.04 -0.391 c 0.03 -0.13 0.06 -0.26 0.11 -0.38 c 0.05 -0.12 0.12 -0.229 0.19 -0.34 c 0.07 -0.11 0.15 -0.21 0.25 -0.31 c 0.09 -0.091 0.19 -0.171 0.3 -0.24 c 0.11 -0.08 0.22 -0.141 0.34 -0.19 c 0.13 -0.05 0.25 -0.09 0.38 -0.109 c 0.26 -0.051 0.52 -0.061 0.78 0 c 0.13 0.02 0.26 0.06 0.38 0.109 c 0.12 0.05 0.23 0.11 0.34 0.19 c 0.11 0.069 0.21 0.149 0.3 0.24 c 0.1 0.1 0.18 0.199 0.25 0.31 c 0.08 0.11 0.14 0.22 0.19 0.34 c 0.05 0.12 0.09 0.25 0.11 0.38 c 0.03 0.13 0.04 0.261 0.04 0.391 c 0 0.529 -0.21 1.04 -0.59 1.409 C 13.1 52.95 12.6 53.16 12.06 53.16 z" style="stroke: none; stroke-width: 1; stroke-dasharray: none; stroke-linecap: butt; stroke-linejoin: miter; stroke-miterlimit: 10; fill: rgb(0,0,0); fill-rule: nonzero; opacity: 1;" transform=" matrix(1 0 0 1 0 0) " stroke-linecap="round" />
	<path d="M 82.05 40.638 l -10.801 -1.881 l -7.927 -4.599 c -2.209 -1.283 -4.729 -1.96 -7.284 -1.96 H 17.494 c -1.608 0 -3.144 0.601 -4.325 1.692 l -4.745 4.385 h -3.66 c -2.037 0 -3.757 1.525 -4.001 3.548 l -0.728 6.044 c -0.259 2.151 0.895 4.193 2.871 5.081 l 0.79 0.355 c -0.176 -0.687 -0.28 -1.403 -0.28 -2.144 c 0 -4.767 3.878 -8.645 8.645 -8.645 s 8.645 3.878 8.645 8.645 c 0 1.309 -0.301 2.547 -0.824 3.66 h 50.883 c -0.523 -1.113 -0.824 -2.351 -0.824 -3.66 c 0 -4.767 3.878 -8.645 8.645 -8.645 s 8.645 3.878 8.645 8.645 c 0 1.109 -0.217 2.166 -0.599 3.141 l 0.079 -0.013 C 88.615 53.981 90 52.357 90 50.426 v -0.334 C 90 45.416 86.656 41.44 82.05 40.638 z M 32.929 40.292 H 23.14 c -0.655 0 -1.25 -0.306 -1.63 -0.839 s -0.478 -1.194 -0.265 -1.814 l 0.836 -2.441 h 10.848 V 40.292 z M 48.291 40.292 H 35.929 v -5.094 h 12.362 V 40.292 z M 64.758 40.292 H 51.291 v -5.094 h 4.747 c 2.027 0 4.025 0.538 5.778 1.555 l 5.482 3.181 C 66.474 40.164 65.625 40.292 64.758 40.292 z" style="stroke: none; stroke-width: 1; stroke-dasharray: none; stroke-linecap: butt; stroke-linejoin: miter; stroke-miterlimit: 10; fill: rgb(0,0,0); fill-rule: nonzero; opacity: 1;" transform=" matrix(1 0 0 1 0 0) " stroke-linecap="round" />
</g>
</svg>